<svg width="344" height="334" viewBox="0 0 634 424" fill="none" xmlns="http://www.w3.org/2000/svg">
<path d="M546.92 270.46H400.207C398.946 270.458 397.738 269.957 396.846 269.066C395.954 268.176 395.453 266.969 395.45 265.709V52.2664C395.453 51.0071 395.954 49.7999 396.846 48.9095C397.738 48.019 398.946 47.5178 400.207 47.5156H546.92C548.183 47.5156 549.394 48.0159 550.287 48.9066C551.18 49.7973 551.683 51.0057 551.686 52.2664V265.709C551.683 266.97 551.18 268.179 550.287 269.069C549.394 269.96 548.183 270.46 546.92 270.46ZM400.207 47.7183C399 47.7183 397.841 48.1975 396.987 49.0504C396.133 49.9033 395.653 51.0601 395.653 52.2664V265.709C395.653 266.916 396.133 268.072 396.987 268.925C397.841 269.778 399 270.257 400.207 270.257H546.92C548.129 270.257 549.288 269.779 550.143 268.926C550.999 268.073 551.48 266.916 551.483 265.709V52.2664C551.48 51.0594 550.999 49.9026 550.143 49.0499C549.288 48.1972 548.129 47.7183 546.92 47.7183H400.207Z" fill="#E0E0E0"/>
<path d="M377.729 270.46H231C229.739 270.458 228.53 269.957 227.639 269.066C226.747 268.176 226.245 266.969 226.243 265.709V52.2664C226.245 51.0071 226.747 49.7999 227.639 48.9095C228.53 48.019 229.739 47.5178 231 47.5156H377.729C378.99 47.5178 380.199 48.019 381.09 48.9095C381.982 49.7999 382.484 51.0071 382.486 52.2664V265.709C382.484 266.969 381.982 268.176 381.09 269.066C380.199 269.957 378.99 270.458 377.729 270.46ZM231 47.7183C229.8 47.7311 228.653 48.2157 227.808 49.067C226.963 49.9183 226.489 51.0678 226.486 52.2664V265.709C226.489 266.915 226.969 268.071 227.823 268.923C228.676 269.775 229.833 270.255 231.041 270.257H377.729C378.936 270.255 380.093 269.775 380.947 268.923C381.801 268.071 382.281 266.915 382.283 265.709V52.2664C382.281 51.0608 381.801 49.9052 380.947 49.0528C380.093 48.2003 378.936 47.7204 377.729 47.7183H231Z" fill="#E0E0E0"/>
<path d="M208.628 270.46H61.9146C60.6522 270.46 59.4414 269.96 58.548 269.069C57.6546 268.179 57.1516 266.97 57.1494 265.709V52.2664C57.1516 51.0057 57.6546 49.7973 58.548 48.9066C59.4414 48.0159 60.6522 47.5156 61.9146 47.5156H208.628C209.889 47.5178 211.097 48.019 211.989 48.9095C212.881 49.7999 213.382 51.0071 213.385 52.2664V265.709C213.382 266.969 212.881 268.176 211.989 269.066C211.097 269.957 209.889 270.458 208.628 270.46ZM61.9146 47.7183C60.706 47.7183 59.5468 48.1972 58.6915 49.0499C57.8361 49.9026 57.3545 51.0594 57.3524 52.2664V265.709C57.3545 266.916 57.8361 268.073 58.6915 268.926C59.5468 269.779 60.706 270.257 61.9146 270.257H208.628C209.835 270.257 210.994 269.778 211.848 268.925C212.702 268.072 213.182 266.916 213.182 265.709V52.2664C213.182 51.0601 212.702 49.9033 211.848 49.0504C210.994 48.1975 209.835 47.7183 208.628 47.7183H61.9146Z" fill="#E0E0E0"/>
<path d="M608.835 319.97H0V320.067H608.835V319.97Z" fill="#E0E0E0"/>
<path d="M200.859 98.5659C204.662 94.807 209.801 92.7048 215.152 92.7188C220.504 92.7329 225.631 94.862 229.415 98.6408C233.199 102.42 235.331 107.541 235.345 112.885C235.359 118.229 233.254 123.361 229.49 127.16L218.052 138.582C217.675 138.96 217.227 139.259 216.734 139.464C216.241 139.668 215.712 139.773 215.179 139.773C214.645 139.773 214.116 139.668 213.623 139.464C213.13 139.259 212.682 138.96 212.305 138.582L200.859 127.151C197.064 123.36 194.933 118.219 194.933 112.859C194.933 107.498 197.064 102.357 200.859 98.5659ZM215.179 122.263C217.038 122.263 218.855 121.712 220.401 120.681C221.947 119.649 223.152 118.183 223.863 116.468C224.575 114.752 224.761 112.864 224.398 111.043C224.036 109.222 223.14 107.55 221.826 106.237C220.511 104.924 218.836 104.03 217.012 103.667C215.189 103.305 213.299 103.491 211.581 104.202C209.863 104.912 208.395 106.115 207.362 107.659C206.329 109.203 205.778 111.018 205.778 112.875C205.782 115.362 206.775 117.746 208.537 119.503C210.3 121.26 212.688 122.247 215.179 122.247V122.263Z" fill="#E6E6E6"/>
<path d="M537.869 196.718V158.21H513.995V166.99H498.084V70.783H467.48V108.651H458.298V89.7454H434.424V181.955H400.751V149.373H379.645V78.736H353.587V125.83H329.104V227.282H310.132V177.877H290.544V146.09H269.73V121.687L246.513 133.913V199.207H222.03V185.741H189.315V280.375L570.048 280.562V196.718H537.869Z" fill="#EBEBEB"/>
<path d="M292.135 280.432V139.628H266.158V280.562C274.382 280.359 292.135 280.432 292.135 280.432Z" fill="#E6E6E6"/>
<path d="M268.448 280.562V203.123H214.911V280.391L268.448 280.562Z" fill="#FAFAFA"/>
<path d="M333.495 280.448V166.763H303.167V280.432L333.495 280.448Z" fill="#E0E0E0"/>
<path d="M309.15 171.222H305.473V178.794H309.15V171.222Z" fill="#FAFAFA"/>
<path d="M316.497 171.222H312.819V178.794H316.497V171.222Z" fill="#FAFAFA"/>
<path d="M323.851 171.222H320.174V178.794H323.851V171.222Z" fill="#FAFAFA"/>
<path d="M331.206 171.222H327.529V178.794H331.206V171.222Z" fill="#FAFAFA"/>
<path d="M309.15 183.925H305.473V191.497H309.15V183.925Z" fill="#FAFAFA"/>
<path d="M316.497 183.925H312.819V191.497H316.497V183.925Z" fill="#FAFAFA"/>
<path d="M323.851 183.925H320.174V191.497H323.851V183.925Z" fill="#FAFAFA"/>
<path d="M331.206 183.925H327.529V191.497H331.206V183.925Z" fill="#FAFAFA"/>
<path d="M309.15 196.621H305.473V204.193H309.15V196.621Z" fill="#FAFAFA"/>
<path d="M316.497 196.621H312.819V204.193H316.497V196.621Z" fill="#FAFAFA"/>
<path d="M323.851 196.621H320.174V204.193H323.851V196.621Z" fill="#FAFAFA"/>
<path d="M331.206 196.621H327.529V204.193H331.206V196.621Z" fill="#FAFAFA"/>
<path d="M309.15 209.317H305.473V216.889H309.15V209.317Z" fill="#FAFAFA"/>
<path d="M316.497 209.317H312.819V216.889H316.497V209.317Z" fill="#FAFAFA"/>
<path d="M323.851 209.317H320.174V216.889H323.851V209.317Z" fill="#FAFAFA"/>
<path d="M331.206 209.317H327.529V216.889H331.206V209.317Z" fill="#FAFAFA"/>
<path d="M309.15 222.012H305.473V229.584H309.15V222.012Z" fill="#FAFAFA"/>
<path d="M316.497 222.012H312.819V229.584H316.497V222.012Z" fill="#FAFAFA"/>
<path d="M323.851 222.012H320.174V229.584H323.851V222.012Z" fill="#FAFAFA"/>
<path d="M331.206 222.012H327.529V229.584H331.206V222.012Z" fill="#FAFAFA"/>
<path d="M309.15 234.708H305.473V242.28H309.15V234.708Z" fill="#FAFAFA"/>
<path d="M316.497 234.708H312.819V242.28H316.497V234.708Z" fill="#FAFAFA"/>
<path d="M323.851 234.708H320.174V242.28H323.851V234.708Z" fill="#FAFAFA"/>
<path d="M331.206 234.708H327.529V242.28H331.206V234.708Z" fill="#FAFAFA"/>
<path d="M309.15 247.404H305.473V254.976H309.15V247.404Z" fill="#FAFAFA"/>
<path d="M316.497 247.404H312.819V254.976H316.497V247.404Z" fill="#FAFAFA"/>
<path d="M323.851 247.404H320.174V254.976H323.851V247.404Z" fill="#FAFAFA"/>
<path d="M331.206 247.404H327.529V254.976H331.206V247.404Z" fill="#FAFAFA"/>
<path d="M309.15 260.107H305.473V267.679H309.15V260.107Z" fill="#FAFAFA"/>
<path d="M316.497 260.107H312.819V267.679H316.497V260.107Z" fill="#FAFAFA"/>
<path d="M323.851 260.107H320.174V267.679H323.851V260.107Z" fill="#FAFAFA"/>
<path d="M331.206 260.107H327.529V267.679H331.206V260.107Z" fill="#FAFAFA"/>
<path d="M438.889 280.505V150.573H376.008V280.545C376.008 280.545 438.41 280.562 438.889 280.505Z" fill="#F5F5F5"/>
<path d="M388.347 155.753H380.725V164.476H388.347V155.753Z" fill="#E6E6E6"/>
<path d="M403.609 155.753H395.986V164.476H403.609V155.753Z" fill="#E6E6E6"/>
<path d="M418.854 155.753H411.231V164.476H418.854V155.753Z" fill="#E6E6E6"/>
<path d="M434.107 155.753H426.485V164.476H434.107V155.753Z" fill="#E6E6E6"/>
<path d="M388.347 170.386H380.725V179.11H388.347V170.386Z" fill="#E6E6E6"/>
<path d="M403.609 170.386H395.986V179.11H403.609V170.386Z" fill="#E6E6E6"/>
<path d="M418.854 170.386H411.231V179.11H418.854V170.386Z" fill="#E6E6E6"/>
<path d="M434.107 170.386H426.485V179.11H434.107V170.386Z" fill="#E6E6E6"/>
<path d="M388.347 185.02H380.725V193.743H388.347V185.02Z" fill="#E6E6E6"/>
<path d="M403.609 185.02H395.986V193.743H403.609V185.02Z" fill="#E6E6E6"/>
<path d="M418.854 185.02H411.231V193.743H418.854V185.02Z" fill="#E6E6E6"/>
<path d="M434.107 185.02H426.485V193.743H434.107V185.02Z" fill="#E6E6E6"/>
<path d="M388.347 199.645H380.725V208.368H388.347V199.645Z" fill="#E6E6E6"/>
<path d="M403.609 199.645H395.986V208.368H403.609V199.645Z" fill="#E6E6E6"/>
<path d="M418.854 199.645H411.231V208.368H418.854V199.645Z" fill="#E6E6E6"/>
<path d="M434.107 199.645H426.485V208.368H434.107V199.645Z" fill="#E6E6E6"/>
<path d="M388.347 214.286H380.725V223.009H388.347V214.286Z" fill="#E6E6E6"/>
<path d="M403.609 214.286H395.986V223.009H403.609V214.286Z" fill="#E6E6E6"/>
<path d="M418.854 214.286H411.231V223.009H418.854V214.286Z" fill="#E6E6E6"/>
<path d="M434.107 214.286H426.485V223.009H434.107V214.286Z" fill="#E6E6E6"/>
<path d="M388.347 228.911H380.725V237.635H388.347V228.911Z" fill="#E6E6E6"/>
<path d="M403.609 228.911H395.986V237.635H403.609V228.911Z" fill="#E6E6E6"/>
<path d="M418.854 228.911H411.231V237.635H418.854V228.911Z" fill="#E6E6E6"/>
<path d="M434.107 228.911H426.485V237.635H434.107V228.911Z" fill="#E6E6E6"/>
<path d="M388.347 243.545H380.725V252.268H388.347V243.545Z" fill="#E6E6E6"/>
<path d="M403.609 243.545H395.986V252.268H403.609V243.545Z" fill="#E6E6E6"/>
<path d="M418.854 243.545H411.231V252.268H418.854V243.545Z" fill="#E6E6E6"/>
<path d="M434.107 243.545H426.485V252.268H434.107V243.545Z" fill="#E6E6E6"/>
<path d="M388.347 258.178H380.725V266.901H388.347V258.178Z" fill="#E6E6E6"/>
<path d="M403.609 258.178H395.986V266.901H403.609V258.178Z" fill="#E6E6E6"/>
<path d="M418.854 258.178H411.231V266.901H418.854V258.178Z" fill="#E6E6E6"/>
<path d="M434.107 258.178H426.485V266.901H434.107V258.178Z" fill="#E6E6E6"/>
<path d="M277.945 149.195H270.923V157.237H277.945V149.195Z" fill="#FAFAFA"/>
<path d="M277.945 162.677H270.923V170.719H277.945V162.677Z" fill="#FAFAFA"/>
<path d="M277.945 176.167H270.923V184.209H277.945V176.167Z" fill="#FAFAFA"/>
<path d="M277.945 189.641H270.923V197.683H277.945V189.641Z" fill="#FAFAFA"/>
<path d="M277.945 203.123H270.923V211.165H277.945V203.123Z" fill="#FAFAFA"/>
<path d="M277.945 216.613H270.923V224.655H277.945V216.613Z" fill="#FAFAFA"/>
<path d="M277.945 230.095H270.923V238.137H277.945V230.095Z" fill="#FAFAFA"/>
<path d="M277.945 243.577H270.923V251.619H277.945V243.577Z" fill="#FAFAFA"/>
<path d="M287.338 149.195H280.316V157.237H287.338V149.195Z" fill="#FAFAFA"/>
<path d="M287.338 162.677H280.316V170.719H287.338V162.677Z" fill="#FAFAFA"/>
<path d="M287.338 176.167H280.316V184.209H287.338V176.167Z" fill="#FAFAFA"/>
<path d="M287.338 189.641H280.316V197.683H287.338V189.641Z" fill="#FAFAFA"/>
<path d="M287.338 203.123H280.316V211.165H287.338V203.123Z" fill="#FAFAFA"/>
<path d="M287.338 216.613H280.316V224.655H287.338V216.613Z" fill="#FAFAFA"/>
<path d="M287.338 230.095H280.316V238.137H287.338V230.095Z" fill="#FAFAFA"/>
<path d="M287.338 243.577H280.316V251.619H287.338V243.577Z" fill="#FAFAFA"/>
<path d="M367.176 88.0835H359.553V96.8067H367.176V88.0835Z" fill="#FAFAFA"/>
<path d="M367.176 102.709H359.553V111.432H367.176V102.709Z" fill="#FAFAFA"/>
<path d="M367.176 116.345H359.553V125.068H367.176V116.345Z" fill="#FAFAFA"/>
<path d="M367.176 130.97H359.553V139.693H367.176V130.97Z" fill="#FAFAFA"/>
<path d="M367.176 145.595H359.553V154.318H367.176V145.595Z" fill="#FAFAFA"/>
<path d="M367.176 160.236H359.553V168.96H367.176V160.236Z" fill="#FAFAFA"/>
<path d="M367.176 174.862H359.553V183.585H367.176V174.862Z" fill="#FAFAFA"/>
<path d="M367.176 189.503H359.553V198.226H367.176V189.503Z" fill="#FAFAFA"/>
<path d="M481.694 75.3959H474.071V84.1191H481.694V75.3959Z" fill="#FAFAFA"/>
<path d="M481.694 90.021H474.071V98.7442H481.694V90.021Z" fill="#FAFAFA"/>
<path d="M481.694 104.662H474.071V113.386H481.694V104.662Z" fill="#FAFAFA"/>
<path d="M481.694 119.288H474.071V128.011H481.694V119.288Z" fill="#FAFAFA"/>
<path d="M481.694 133.929H474.071V142.652H481.694V133.929Z" fill="#FAFAFA"/>
<path d="M481.694 148.554H474.071V157.277H481.694V148.554Z" fill="#FAFAFA"/>
<path d="M481.694 163.187H474.071V171.911H481.694V163.187Z" fill="#FAFAFA"/>
<path d="M481.694 177.821H474.071V186.544H481.694V177.821Z" fill="#FAFAFA"/>
<path d="M536.311 142.612H490.396V280.562H536.311V142.612Z" fill="#E6E6E6"/>
<path d="M510.65 149.413H497.191V158.137H510.65V149.413Z" fill="#FAFAFA"/>
<path d="M510.65 164.055H497.191V172.778H510.65V164.055Z" fill="#FAFAFA"/>
<path d="M510.65 178.68H497.191V187.403H510.65V178.68Z" fill="#FAFAFA"/>
<path d="M510.65 193.313H497.191V202.036H510.65V193.313Z" fill="#FAFAFA"/>
<path d="M510.65 207.947H497.191V216.67H510.65V207.947Z" fill="#FAFAFA"/>
<path d="M510.65 222.572H497.191V231.295H510.65V222.572Z" fill="#FAFAFA"/>
<path d="M510.65 237.213H497.191V245.936H510.65V237.213Z" fill="#FAFAFA"/>
<path d="M510.65 251.838H497.191V260.561H510.65V251.838Z" fill="#FAFAFA"/>
<path d="M528.655 149.413H515.196V158.137H528.655V149.413Z" fill="#FAFAFA"/>
<path d="M528.655 164.055H515.196V172.778H528.655V164.055Z" fill="#FAFAFA"/>
<path d="M528.655 178.68H515.196V187.403H528.655V178.68Z" fill="#FAFAFA"/>
<path d="M528.655 193.313H515.196V202.036H528.655V193.313Z" fill="#FAFAFA"/>
<path d="M528.655 207.947H515.196V216.67H528.655V207.947Z" fill="#FAFAFA"/>
<path d="M528.655 222.572H515.196V231.295H528.655V222.572Z" fill="#FAFAFA"/>
<path d="M528.655 237.213H515.196V245.936H528.655V237.213Z" fill="#FAFAFA"/>
<path d="M528.655 251.838H515.196V260.561H528.655V251.838Z" fill="#FAFAFA"/>
<path d="M465.361 280.505V185.02H445.334V280.505H465.361Z" fill="#E0E0E0"/>
<path d="M449.28 188.879H446.852V195.381H449.28V188.879Z" fill="#FAFAFA"/>
<path d="M454.134 188.879H451.707V195.381H454.134V188.879Z" fill="#FAFAFA"/>
<path d="M458.98 188.879H456.553V195.381H458.98V188.879Z" fill="#FAFAFA"/>
<path d="M463.843 188.879H461.416V195.381H463.843V188.879Z" fill="#FAFAFA"/>
<path d="M449.28 199.791H446.852V206.293H449.28V199.791Z" fill="#FAFAFA"/>
<path d="M454.134 199.791H451.707V206.293H454.134V199.791Z" fill="#FAFAFA"/>
<path d="M458.98 199.791H456.553V206.293H458.98V199.791Z" fill="#FAFAFA"/>
<path d="M463.843 199.791H461.416V206.293H463.843V199.791Z" fill="#FAFAFA"/>
<path d="M449.28 210.695H446.852V217.197H449.28V210.695Z" fill="#FAFAFA"/>
<path d="M454.134 210.695H451.707V217.197H454.134V210.695Z" fill="#FAFAFA"/>
<path d="M458.98 210.695H456.553V217.197H458.98V210.695Z" fill="#FAFAFA"/>
<path d="M463.843 210.695H461.416V217.197H463.843V210.695Z" fill="#FAFAFA"/>
<path d="M449.28 221.607H446.852V228.109H449.28V221.607Z" fill="#FAFAFA"/>
<path d="M454.134 221.607H451.707V228.109H454.134V221.607Z" fill="#FAFAFA"/>
<path d="M458.98 221.607H456.553V228.109H458.98V221.607Z" fill="#FAFAFA"/>
<path d="M463.843 221.607H461.416V228.109H463.843V221.607Z" fill="#FAFAFA"/>
<path d="M449.28 232.527H446.852V239.029H449.28V232.527Z" fill="#FAFAFA"/>
<path d="M454.134 232.527H451.707V239.029H454.134V232.527Z" fill="#FAFAFA"/>
<path d="M458.98 232.527H456.553V239.029H458.98V232.527Z" fill="#FAFAFA"/>
<path d="M463.843 232.527H461.416V239.029H463.843V232.527Z" fill="#FAFAFA"/>
<path d="M449.28 243.431H446.852V249.933H449.28V243.431Z" fill="#FAFAFA"/>
<path d="M454.134 243.431H451.707V249.933H454.134V243.431Z" fill="#FAFAFA"/>
<path d="M458.98 243.431H456.553V249.933H458.98V243.431Z" fill="#FAFAFA"/>
<path d="M463.843 243.431H461.416V249.933H463.843V243.431Z" fill="#FAFAFA"/>
<path d="M449.28 254.343H446.852V260.845H449.28V254.343Z" fill="#FAFAFA"/>
<path d="M454.134 254.343H451.707V260.845H454.134V254.343Z" fill="#FAFAFA"/>
<path d="M458.98 254.343H456.553V260.845H458.98V254.343Z" fill="#FAFAFA"/>
<path d="M463.843 254.343H461.416V260.845H463.843V254.343Z" fill="#FAFAFA"/>
<path d="M449.28 265.247H446.852V271.749H449.28V265.247Z" fill="#FAFAFA"/>
<path d="M454.134 265.247H451.707V271.749H454.134V265.247Z" fill="#FAFAFA"/>
<path d="M458.98 265.247H456.553V271.749H458.98V265.247Z" fill="#FAFAFA"/>
<path d="M463.843 265.247H461.416V271.749H463.843V265.247Z" fill="#FAFAFA"/>
<path d="M225.456 206.358H218.961V211.814H225.456V206.358Z" fill="#E6E6E6"/>
<path d="M238.436 206.358H231.942V211.814H238.436V206.358Z" fill="#E6E6E6"/>
<path d="M251.408 206.358H244.914V211.814H251.408V206.358Z" fill="#E6E6E6"/>
<path d="M264.397 206.358H257.903V211.814H264.397V206.358Z" fill="#E6E6E6"/>
<path d="M225.456 215.51H218.961V220.967H225.456V215.51Z" fill="#E6E6E6"/>
<path d="M238.436 215.51H231.942V220.967H238.436V215.51Z" fill="#E6E6E6"/>
<path d="M251.408 215.51H244.914V220.967H251.408V215.51Z" fill="#E6E6E6"/>
<path d="M264.397 215.51H257.903V220.967H264.397V215.51Z" fill="#E6E6E6"/>
<path d="M225.456 224.655H218.961V230.111H225.456V224.655Z" fill="#E6E6E6"/>
<path d="M238.436 224.655H231.942V230.111H238.436V224.655Z" fill="#E6E6E6"/>
<path d="M251.408 224.655H244.914V230.111H251.408V224.655Z" fill="#E6E6E6"/>
<path d="M264.397 224.655H257.903V230.111H264.397V224.655Z" fill="#E6E6E6"/>
<path d="M225.456 233.808H218.961V239.264H225.456V233.808Z" fill="#E6E6E6"/>
<path d="M238.436 233.808H231.942V239.264H238.436V233.808Z" fill="#E6E6E6"/>
<path d="M251.408 233.808H244.914V239.264H251.408V233.808Z" fill="#E6E6E6"/>
<path d="M264.397 233.808H257.903V239.264H264.397V233.808Z" fill="#E6E6E6"/>
<path d="M225.456 242.953H218.961V248.409H225.456V242.953Z" fill="#E6E6E6"/>
<path d="M238.436 242.953H231.942V248.409H238.436V242.953Z" fill="#E6E6E6"/>
<path d="M251.408 242.953H244.914V248.409H251.408V242.953Z" fill="#E6E6E6"/>
<path d="M264.397 242.953H257.903V248.409H264.397V242.953Z" fill="#E6E6E6"/>
<path d="M225.456 252.098H218.961V257.554H225.456V252.098Z" fill="#E6E6E6"/>
<path d="M238.436 252.098H231.942V257.554H238.436V252.098Z" fill="#E6E6E6"/>
<path d="M251.408 252.098H244.914V257.554H251.408V252.098Z" fill="#E6E6E6"/>
<path d="M264.397 252.098H257.903V257.554H264.397V252.098Z" fill="#E6E6E6"/>
<path d="M225.456 261.251H218.961V266.707H225.456V261.251Z" fill="#E6E6E6"/>
<path d="M238.436 261.251H231.942V266.707H238.436V261.251Z" fill="#E6E6E6"/>
<path d="M251.408 261.251H244.914V266.707H251.408V261.251Z" fill="#E6E6E6"/>
<path d="M264.397 261.251H257.903V266.707H264.397V261.251Z" fill="#E6E6E6"/>
<path d="M575.844 343.789H530.604V344.129H575.844V343.789Z" fill="#EBEBEB"/>
<path d="M413.74 347.485H401.864V347.826H413.74V347.485Z" fill="#EBEBEB"/>
<path d="M91.9828 333.412H32.9907V333.752H91.9828V333.412Z" fill="#EBEBEB"/>
<path d="M112.805 333.412H104.151V333.752H112.805V333.412Z" fill="#EBEBEB"/>
<path d="M268.861 339.168H140.917V339.508H268.861V339.168Z" fill="#EBEBEB"/>
<path d="M533.339 366.14C533.339 368.888 437.898 371.109 320.166 371.109C202.434 371.109 106.993 368.888 106.993 366.14C106.993 363.392 202.434 361.17 320.166 361.17C437.898 361.17 533.339 363.4 533.339 366.14Z" fill="#F5F5F5"/>
<path d="M46.9127 68.0265H160.846C163.668 68.0265 166.375 69.1432 168.374 71.1322C170.373 73.1213 171.502 75.8204 171.513 78.6386V315.317C171.513 318.972 170.059 322.477 167.471 325.062C164.883 327.647 161.373 329.099 157.713 329.099H50.0705C46.4105 329.099 42.9003 327.647 40.3123 325.062C37.7242 322.477 36.2703 318.972 36.2703 315.317V78.6386C36.281 75.8246 37.4062 73.1291 39.4002 71.1408C41.3942 69.1525 44.0949 68.0329 46.9127 68.0265Z" fill="#263238"/>
<path d="M131.922 73.8879L129.755 78.1603H76.8267L73.677 73.8879H48.6579C47.7086 73.8815 46.7673 74.0624 45.8881 74.4203C45.009 74.7782 44.2093 75.306 43.5349 75.9734C42.8606 76.6408 42.3249 77.4347 41.9586 78.3095C41.5924 79.1842 41.4028 80.1226 41.4006 81.0707V311.393C41.4091 312.821 41.6994 314.234 42.2549 315.55C42.8103 316.866 43.62 318.06 44.6378 319.064C45.6555 320.068 46.8614 320.861 48.1863 321.399C49.5113 321.937 50.9294 322.209 52.3597 322.199H155.399C156.828 322.208 158.246 321.935 159.57 321.397C160.894 320.858 162.099 320.065 163.115 319.061C164.132 318.058 164.941 316.864 165.496 315.548C166.051 314.232 166.341 312.82 166.35 311.393V81.0707C166.348 80.124 166.159 79.1869 165.793 78.3132C165.428 77.4396 164.894 76.6464 164.221 75.9792C163.549 75.312 162.751 74.7838 161.874 74.425C160.996 74.0661 160.057 73.8836 159.109 73.8879H131.922Z" fill="white"/>
<path d="M103.818 73.4826C103.825 73.9136 103.703 74.3368 103.468 74.6983C103.233 75.0599 102.895 75.3434 102.498 75.5128C102.101 75.6823 101.663 75.7299 101.239 75.6498C100.815 75.5697 100.424 75.3653 100.116 75.0628C99.8088 74.7603 99.5984 74.3732 99.5118 73.9509C99.4252 73.5286 99.4663 73.0901 99.63 72.6912C99.7936 72.2923 100.072 71.951 100.431 71.7108C100.789 71.4706 101.211 71.3423 101.643 71.3423C102.214 71.3422 102.763 71.5667 103.17 71.9671C103.577 72.3676 103.81 72.912 103.818 73.4826Z" fill="white"/>
<path d="M107.033 73.4826C107.033 73.6974 106.969 73.9075 106.85 74.0861C106.73 74.2648 106.56 74.404 106.361 74.4862C106.163 74.5685 105.944 74.59 105.733 74.5481C105.522 74.5061 105.328 74.4027 105.176 74.2508C105.024 74.0988 104.92 73.9053 104.878 73.6945C104.836 73.4838 104.858 73.2654 104.94 73.0669C105.023 72.8684 105.162 72.6987 105.341 72.5793C105.52 72.46 105.73 72.3962 105.945 72.3962C106.234 72.3962 106.51 72.5107 106.714 72.7144C106.918 72.9181 107.033 73.1945 107.033 73.4826Z" fill="white"/>
<path d="M159.109 73.8879H131.922L129.755 78.1603H76.8267L73.677 73.8879H48.6579C47.7086 73.8815 46.7673 74.0624 45.8881 74.4203C45.009 74.7782 44.2093 75.306 43.5349 75.9734C42.8606 76.6408 42.3249 77.4347 41.9586 78.3095C41.5924 79.1842 41.4028 80.1226 41.4006 81.0707V140.001H166.35V81.0707C166.348 80.124 166.159 79.1869 165.793 78.3132C165.428 77.4396 164.894 76.6464 164.221 75.9792C163.549 75.312 162.751 74.7838 161.874 74.425C160.996 74.0661 160.057 73.8836 159.109 73.8879Z" fill="#191D4A"/>
<path d="M172 281C173.5 260 191 255.5 209 255.5" stroke="white" stroke-width="2"/>
<path d="M152.509 116.963V112.675C152.505 112.502 152.461 112.332 152.381 112.179C152.301 112.026 152.186 111.893 152.046 111.791L151.949 111.734L148.905 110.113C148.882 110.097 148.865 110.074 148.856 110.048C148.848 110.028 148.845 110.006 148.846 109.985C148.846 109.963 148.851 109.942 148.86 109.922C148.869 109.903 148.882 109.885 148.898 109.87C148.914 109.856 148.933 109.845 148.954 109.837L149.319 109.708C149.334 109.701 149.348 109.691 149.36 109.678C149.371 109.666 149.379 109.651 149.384 109.635C149.384 109.611 149.376 109.589 149.361 109.571C149.346 109.553 149.326 109.541 149.303 109.537C147.858 109.335 142.232 108.605 139.277 108.962C138.65 109.023 138.031 109.156 137.434 109.359C135.803 109.972 134.284 110.848 132.937 111.953L132.491 112.318C130.473 112.305 128.475 112.72 126.63 113.534C126.469 113.606 126.325 113.71 126.207 113.84C126.088 113.97 125.997 114.122 125.94 114.288L125.599 115.31C125.55 115.439 125.526 115.577 125.526 115.715V117.871C125.525 118.097 125.597 118.317 125.732 118.498C125.866 118.679 126.056 118.812 126.272 118.877L126.443 118.933C126.554 118.965 126.669 118.982 126.784 118.982H127.945V118.885H128.448C128.568 119.279 128.783 119.638 129.073 119.931C129.379 120.245 129.764 120.472 130.188 120.586C130.612 120.7 131.058 120.697 131.481 120.578C131.904 120.459 132.286 120.229 132.588 119.911C132.89 119.593 133.101 119.199 133.197 118.771H133.7V118.885L145.268 118.609H145.552C145.552 118.609 145.552 118.536 145.552 118.504H146.039C146.054 119.149 146.325 119.761 146.793 120.207C147.26 120.652 147.886 120.894 148.531 120.879C149.177 120.864 149.791 120.593 150.237 120.127C150.683 119.66 150.925 119.035 150.91 118.39H151.397H151.446L151.673 118.285L151.844 118.212C152.039 118.124 152.206 117.982 152.322 117.802C152.439 117.622 152.501 117.413 152.501 117.199V117.085L152.509 116.963Z" fill="white"/>
<path d="M79.2328 116.963V112.675C79.2288 112.502 79.1849 112.332 79.1047 112.179C79.0244 112.026 78.91 111.893 78.7701 111.791L78.6727 111.734L75.6285 110.113C75.6058 110.097 75.5887 110.074 75.5798 110.048C75.5721 110.028 75.5685 110.006 75.5692 109.985C75.5699 109.963 75.575 109.942 75.584 109.922C75.5931 109.903 75.606 109.885 75.622 109.87C75.638 109.856 75.6568 109.845 75.6772 109.837L76.0425 109.708C76.0581 109.701 76.072 109.691 76.0833 109.678C76.0945 109.666 76.1028 109.651 76.1075 109.635C76.1078 109.611 76.0998 109.589 76.0849 109.571C76.07 109.553 76.0492 109.541 76.0263 109.537C74.5813 109.335 68.9557 108.605 66.0008 108.962C65.3733 109.023 64.7549 109.156 64.1581 109.359C62.5267 109.972 61.0073 110.848 59.6608 111.953L59.2143 112.318C57.1965 112.305 55.1989 112.72 53.3533 113.534C53.1929 113.606 53.049 113.71 52.9303 113.84C52.8117 113.97 52.7208 114.122 52.6633 114.288L52.3223 115.31C52.2739 115.439 52.2492 115.577 52.2493 115.715V117.871C52.2485 118.097 52.3209 118.317 52.4555 118.498C52.5901 118.679 52.7797 118.812 52.9961 118.877L53.1666 118.933C53.2774 118.965 53.3922 118.982 53.5075 118.982H54.6684V118.885H55.1717C55.2919 119.279 55.5065 119.638 55.7967 119.931C56.1024 120.245 56.4875 120.472 56.9114 120.586C57.3352 120.7 57.7821 120.697 58.2046 120.578C58.6271 120.459 59.0097 120.229 59.3117 119.911C59.6138 119.593 59.8242 119.199 59.9206 118.771H60.4239V118.885L71.9918 118.609H72.2759C72.2759 118.609 72.2759 118.536 72.2759 118.504H72.763C72.778 119.149 73.0491 119.761 73.5164 120.207C73.9838 120.652 74.6092 120.894 75.2551 120.879C75.901 120.864 76.5145 120.593 76.9605 120.127C77.4066 119.66 77.6487 119.035 77.6336 118.39H78.1207H78.1694L78.3967 118.285L78.5672 118.212C78.763 118.124 78.9292 117.982 79.0459 117.802C79.1626 117.622 79.2247 117.413 79.2247 117.199V117.085L79.2328 116.963Z" fill="white"/>
<path d="M132.799 245.263H83.9055V250.703H132.799V245.263Z" fill="#263238"/>
<path opacity="0.7" d="M132.799 245.263H83.9055V250.703H132.799V245.263Z" fill="white"/>
<path d="M98.615 256.532H83.9055V261.972H98.615V256.532Z" fill="#263238"/>
<path opacity="0.7" d="M98.615 256.532H83.9055V261.972H98.615V256.532Z" fill="white"/>
<path d="M148.004 278H62.9209V304.656H148.004V278Z" fill="#191D4A"/>
<path opacity="0.3" d="M148.004 278H139.975V304.656H148.004V278Z" fill="black"/>
<path d="M66.0706 244.242C67.3121 243.095 68.9501 242.472 70.6412 242.505C72.3323 242.538 73.945 243.223 75.141 244.417C76.337 245.612 77.0234 247.222 77.0561 248.911C77.0889 250.6 76.4656 252.236 75.3168 253.476L71.6232 257.164C71.3766 257.411 71.0423 257.549 70.6937 257.549C70.3451 257.549 70.0108 257.411 69.7642 257.164L66.0706 253.476C64.8457 252.251 64.1577 250.59 64.1577 248.859C64.1577 247.128 64.8457 245.467 66.0706 244.242ZM70.6978 251.895C71.2993 251.895 71.8872 251.716 72.387 251.382C72.8868 251.048 73.2759 250.573 73.505 250.017C73.734 249.462 73.7927 248.851 73.6736 248.262C73.5544 247.674 73.2629 247.133 72.8358 246.71C72.4088 246.287 71.8655 246 71.275 245.886C70.6845 245.772 70.0733 245.835 69.5189 246.069C68.9646 246.302 68.4922 246.694 68.1615 247.196C67.8308 247.698 67.6569 248.286 67.6617 248.887C67.6617 249.285 67.7403 249.679 67.893 250.046C68.0456 250.414 68.2694 250.747 68.5514 251.028C68.8335 251.309 69.1682 251.532 69.5365 251.683C69.9048 251.835 70.2994 251.912 70.6978 251.911V251.895Z" fill="#263238"/>
<path opacity="0.7" d="M66.0706 244.242C67.3121 243.095 68.9501 242.472 70.6412 242.505C72.3323 242.538 73.945 243.223 75.141 244.417C76.337 245.612 77.0234 247.222 77.0561 248.911C77.0889 250.6 76.4656 252.236 75.3168 253.476L71.6232 257.164C71.3766 257.411 71.0423 257.549 70.6937 257.549C70.3451 257.549 70.0108 257.411 69.7642 257.164L66.0706 253.476C64.8457 252.251 64.1577 250.59 64.1577 248.859C64.1577 247.128 64.8457 245.467 66.0706 244.242ZM70.6978 251.895C71.2993 251.895 71.8872 251.716 72.387 251.382C72.8868 251.048 73.2759 250.573 73.505 250.017C73.734 249.462 73.7927 248.851 73.6736 248.262C73.5544 247.674 73.2629 247.133 72.8358 246.71C72.4088 246.287 71.8655 246 71.275 245.886C70.6845 245.772 70.0733 245.835 69.5189 246.069C68.9646 246.302 68.4922 246.694 68.1615 247.196C67.8308 247.698 67.6569 248.286 67.6617 248.887C67.6617 249.285 67.7403 249.679 67.893 250.046C68.0456 250.414 68.2694 250.747 68.5514 251.028C68.8335 251.309 69.1682 251.532 69.5365 251.683C69.9048 251.835 70.2994 251.912 70.6978 251.911V251.895Z" fill="white"/>
<path d="M60.234 205.579L56.1751 205.133L53.8372 206.09C53.5957 206.19 53.3807 206.345 53.2089 206.542C53.0371 206.738 52.9132 206.972 52.8468 207.225C52.7727 207.522 52.8163 207.835 52.9686 208.1V208.173C53.0965 208.393 53.2866 208.569 53.515 208.68C53.7433 208.791 53.9996 208.832 54.2512 208.798L56.5973 208.473C56.824 208.44 57.0389 208.351 57.2223 208.214L59.9255 206.171L60.234 205.579Z" fill="white"/>
<path d="M104 106C105.182 106 106.352 105.767 107.444 105.315C108.536 104.863 109.528 104.2 110.364 103.364C111.2 102.528 111.863 101.536 112.315 100.444C112.767 99.3522 113 98.1819 113 97C113 95.8181 112.767 94.6478 112.315 93.5558C111.863 92.4639 111.2 91.4718 110.364 90.636C109.528 89.8003 108.536 89.1374 107.444 88.6851C106.352 88.2328 105.182 88 104 88M104 106C102.818 106 101.648 105.767 100.556 105.315C99.4639 104.863 98.4718 104.2 97.636 103.364C96.8003 102.528 96.1374 101.536 95.6851 100.444C95.2328 99.3522 95 98.1819 95 97C95 95.8181 95.2328 94.6478 95.6851 93.5558C96.1374 92.4639 96.8003 91.4718 97.636 90.636C98.4718 89.8003 99.4639 89.1374 100.556 88.6851C101.648 88.2328 102.818 88 104 88M104 106C106.761 106 107.941 100.837 107.941 97C107.941 93.163 106.761 88 104 88M104 106C101.239 106 100.059 100.837 100.059 97C100.059 93.163 101.239 88 104 88M95.5 94H112.5M95.5 100H112.5" stroke="white" stroke-width="1.5" stroke-linecap="round" stroke-linejoin="round"/>
<path d="M318.431 158.957C319.267 149.497 312.265 141.152 302.792 140.317C293.32 139.483 284.964 146.476 284.129 155.935C283.293 165.395 290.295 173.74 299.767 174.575C309.24 175.409 317.596 168.417 318.431 158.957Z" fill="#191D4A"/>
<path d="M308.054 169.122L306.861 173.386L311.796 176.013L312.397 170.548L308.054 169.122Z" fill="#191D4A"/>
<path d="M322.277 156.839C322.224 156.833 322.175 156.807 322.14 156.767C322.105 156.726 322.087 156.674 322.09 156.621C322.209 153.855 321.644 151.102 320.447 148.605C319.249 146.109 317.455 143.944 315.222 142.303C315.2 142.288 315.182 142.269 315.167 142.246C315.153 142.223 315.143 142.198 315.139 142.172C315.134 142.145 315.135 142.118 315.141 142.092C315.147 142.066 315.158 142.041 315.174 142.02C315.189 141.998 315.208 141.979 315.231 141.965C315.254 141.95 315.279 141.941 315.305 141.936C315.332 141.932 315.359 141.932 315.385 141.938C315.411 141.944 315.436 141.956 315.458 141.971C317.746 143.653 319.584 145.871 320.812 148.43C322.039 150.989 322.617 153.81 322.496 156.645C322.495 156.672 322.488 156.699 322.477 156.724C322.465 156.749 322.448 156.771 322.428 156.789C322.407 156.807 322.383 156.821 322.357 156.83C322.331 156.838 322.304 156.842 322.277 156.839Z" fill="#191D4A"/>
<path d="M321.53 161.89H321.457C321.431 161.88 321.408 161.865 321.389 161.847C321.369 161.828 321.354 161.805 321.343 161.78C321.333 161.755 321.327 161.729 321.327 161.701C321.327 161.674 321.333 161.647 321.343 161.623C321.663 160.852 321.817 160.024 321.798 159.19C321.798 159.137 321.819 159.085 321.857 159.047C321.895 159.009 321.947 158.988 322.001 158.988C322.027 158.987 322.053 158.991 322.078 159C322.102 159.009 322.125 159.024 322.144 159.042C322.163 159.06 322.178 159.082 322.188 159.106C322.198 159.13 322.204 159.156 322.204 159.182C322.223 160.066 322.057 160.944 321.716 161.76C321.702 161.798 321.676 161.831 321.643 161.854C321.61 161.877 321.57 161.89 321.53 161.89Z" fill="#191D4A"/>
<path d="M300.975 164.703L292.306 158.915L294.327 155.891L300.139 159.774L307.372 150.216L310.278 152.405L300.975 164.703Z" fill="white"/>
<path d="M564.301 326.058L162.786 335.463V266.877H568.165L564.301 326.058Z" fill="#263238"/>
<path opacity="0.5" d="M564.301 326.058L162.786 335.463V266.877H568.165L564.301 326.058Z" fill="black"/>
<path d="M147.346 284.477V319.257C147.348 322.884 148.513 326.415 150.671 329.333C152.828 332.251 155.865 334.402 159.336 335.471L162.169 336.33C163.919 336.872 165.744 337.126 167.575 337.084L186.328 336.646C184.331 329.677 183.961 322.343 185.245 315.209C186.528 308.074 189.432 301.328 193.733 295.488C198.033 289.649 203.617 284.871 210.054 281.523C216.492 278.174 223.612 276.342 230.869 276.17C238.125 275.997 245.325 277.487 251.915 280.526C258.505 283.564 264.31 288.071 268.885 293.699C273.459 299.327 276.681 305.927 278.304 312.993C279.927 320.058 279.907 327.401 278.245 334.457L469.014 329.926C468.703 327.702 468.553 325.458 468.567 323.213C468.431 316.881 469.566 310.586 471.905 304.7C474.244 298.813 477.739 293.453 482.185 288.937C486.631 284.421 491.937 280.839 497.791 278.403C503.644 275.968 509.927 274.727 516.269 274.755C522.61 274.782 528.882 276.078 534.714 278.564C540.547 281.051 545.821 284.679 550.227 289.233C554.634 293.788 558.082 299.178 560.369 305.085C562.657 310.992 563.737 317.296 563.545 323.626C563.545 324.551 563.464 325.459 563.464 326.375C563.716 326.269 563.976 326.172 564.227 326.05L570.722 323.14C573.869 321.714 576.538 319.413 578.41 316.511C580.281 313.61 581.276 310.231 581.275 306.78V235.956C581.276 232.687 580.382 229.48 578.69 226.682C576.997 223.884 574.57 221.602 571.671 220.083L522.786 194.327C522.345 194.092 521.981 193.735 521.739 193.298C521.496 192.862 521.386 192.364 521.42 191.866C521.454 191.368 521.632 190.891 521.932 190.492C522.232 190.093 522.642 189.789 523.111 189.616L529.11 187.468C529.411 187.368 529.669 187.168 529.841 186.902C530.014 186.636 530.09 186.319 530.058 186.004C530.026 185.688 529.887 185.393 529.665 185.167C529.442 184.941 529.149 184.798 528.834 184.76C505.536 181.517 414.9 169.681 367.29 175.494C312.332 182.215 259.664 229.811 259.664 229.811C219.18 228.328 181.408 242.402 165.156 249.447C162.562 250.577 160.233 252.237 158.319 254.321C156.405 256.404 154.948 258.864 154.043 261.542L148.482 278C147.753 280.083 147.369 282.271 147.346 284.477Z" fill="#191D4A"/>
<path d="M469.103 329.958C468.827 327.87 468.689 325.765 468.689 323.659C468.689 322.581 468.689 321.519 468.795 320.465L434.302 306.35C432.283 305.531 430.105 305.176 427.93 305.312L307.916 313.176C305.954 313.301 304.039 313.828 302.29 314.725L279.488 326.44C279.325 329.145 278.936 331.832 278.327 334.474L469.103 329.958Z" fill="#263238"/>
<path d="M581.413 306.796V304.988L561.93 310.955C563.067 315.089 563.643 319.356 563.643 323.643C563.643 324.567 563.562 325.475 563.562 326.391C563.813 326.286 564.073 326.188 564.325 326.067L570.868 323.156C574.013 321.729 576.681 319.427 578.551 316.526C580.421 313.625 581.415 310.247 581.413 306.796Z" fill="#263238"/>
<path d="M152.882 331.742C154.742 333.456 156.96 334.735 159.377 335.487L162.218 336.346C163.965 336.888 165.788 337.142 167.616 337.1L186.368 336.663C185.691 334.294 185.202 331.876 184.907 329.431L152.882 331.742Z" fill="#263238"/>
<path d="M516.235 271.741C508.867 271.738 501.583 273.301 494.866 276.324C488.149 279.348 482.153 283.764 477.276 289.279C472.398 294.794 468.751 301.282 466.577 308.312C464.402 315.342 463.75 322.754 464.663 330.055L469.209 329.958C468.897 327.734 468.748 325.491 468.762 323.245C468.626 316.914 469.761 310.619 472.1 304.732C474.439 298.845 477.934 293.486 482.38 288.97C486.826 284.453 492.132 280.872 497.985 278.436C503.839 276 510.122 274.759 516.464 274.787C522.805 274.815 529.077 276.11 534.909 278.597C540.741 281.083 546.016 284.711 550.422 289.266C554.828 293.821 558.277 299.21 560.564 305.117C562.851 311.024 563.931 317.329 563.74 323.659C563.74 324.583 563.667 325.491 563.667 326.407C563.919 326.302 564.179 326.204 564.43 326.083L568.181 324.38V323.659C568.161 309.904 562.681 296.718 552.942 286.992C543.203 277.265 530 271.793 516.227 271.774L516.235 271.741Z" fill="#263238"/>
<path d="M232.063 271.741C224.114 271.731 216.269 273.542 209.131 277.036C201.993 280.529 195.753 285.612 190.891 291.893C186.03 298.173 182.676 305.484 181.088 313.263C179.5 321.041 179.721 329.08 181.733 336.76L186.344 336.663C184.35 329.694 183.982 322.362 185.267 315.229C186.553 308.095 189.457 301.351 193.758 295.514C198.059 289.676 203.642 284.9 210.079 281.552C216.515 278.205 223.634 276.374 230.89 276.201C238.145 276.029 245.343 277.518 251.932 280.556C258.521 283.593 264.326 288.098 268.9 293.724C273.475 299.351 276.698 305.949 278.322 313.013C279.946 320.076 279.928 327.418 278.27 334.474L282.873 334.368C284.474 326.809 284.365 318.987 282.553 311.475C280.741 303.963 277.272 296.949 272.399 290.947C267.525 284.945 261.371 280.106 254.386 276.784C247.4 273.461 239.76 271.738 232.023 271.741H232.063Z" fill="#263238"/>
<path d="M277.288 231.862C276.718 232.359 276.327 233.028 276.175 233.768C275.964 234.59 276.069 235.462 276.468 236.212C276.868 236.962 277.533 237.536 278.335 237.821L298.167 243.374C299.915 243.868 301.746 244.006 303.549 243.78L450.619 225.579C454.306 225.066 457.671 223.202 460.06 220.35L479.348 197.902C480.012 197.132 480.418 196.174 480.509 195.162C480.768 192.608 479.169 190.297 476.92 190.014C441.705 185.352 397.179 181.096 369.067 184.541C332.221 189.033 295.114 216.694 277.288 231.862Z" fill="#191D4A"/>
<path opacity="0.8" d="M277.953 231.862C277.381 232.358 276.987 233.027 276.833 233.768C276.624 234.591 276.73 235.463 277.131 236.213C277.532 236.963 278.199 237.536 279 237.821L298.832 243.374C300.581 243.868 302.411 244.006 304.214 243.78L447.989 233.938C451.568 233.484 457.097 226.909 460.977 221.583L479.981 197.902C480.637 197.127 481.041 196.171 481.142 195.162C481.401 192.608 479.794 190.297 477.554 190.014C442.339 185.352 397.812 181.096 369.692 184.541C332.878 189.033 295.78 216.694 277.953 231.862Z" fill="white"/>
<g opacity="0.3">
<path d="M374.019 245.831C373.795 245.75 373.589 245.626 373.413 245.466C373.237 245.306 373.095 245.112 372.994 244.897C372.892 244.682 372.835 244.448 372.824 244.211C372.814 243.973 372.85 243.736 372.931 243.512C373.134 242.942 373.503 242.446 373.99 242.088C374.478 241.729 375.062 241.525 375.667 241.502L393.169 240.764C393.406 240.754 393.643 240.79 393.867 240.869C394.093 240.95 394.301 241.075 394.479 241.236C394.657 241.397 394.802 241.591 394.904 241.808C395.007 242.025 395.065 242.26 395.077 242.499C395.088 242.739 395.053 242.978 394.971 243.204C394.762 243.773 394.389 244.267 393.9 244.625C393.41 244.983 392.825 245.188 392.219 245.215L374.717 245.936C374.48 245.946 374.243 245.91 374.019 245.831Z" fill="black"/>
</g>
<path d="M504.18 195.754C503.811 196.08 503.511 196.476 503.296 196.918C503.081 197.361 502.955 197.841 502.927 198.332C502.898 198.824 502.967 199.315 503.129 199.78C503.291 200.244 503.543 200.672 503.871 201.039L508.02 205.547C508.497 206.053 509.103 206.42 509.773 206.609L560.615 220.691C561.5 220.926 562.411 221.048 563.326 221.056H573.425C572.903 220.7 572.361 220.375 571.801 220.083L522.786 194.294C522.492 194.149 522.229 193.948 522.013 193.701C521.798 193.455 521.632 193.168 521.528 192.858C521.423 192.548 521.38 192.22 521.403 191.893C521.425 191.566 521.512 191.247 521.658 190.954L505.739 194.935C505.162 195.082 504.628 195.362 504.18 195.754Z" fill="#191D4A"/>
<path d="M187.578 256.07L170.23 254.181L160.27 258.235C159.233 258.658 158.312 259.319 157.578 260.164C156.845 261.009 156.321 262.015 156.048 263.099C155.722 264.366 155.905 265.711 156.56 266.844L156.738 267.144C157.281 268.082 158.092 268.838 159.066 269.314C160.04 269.791 161.135 269.967 162.21 269.82L172.211 268.441C173.186 268.304 174.11 267.922 174.898 267.331L186.441 258.616L187.578 256.07Z" fill="white"/>
<path d="M259.647 229.819L262.408 230.63C263.464 230.93 264.579 230.966 265.653 230.735C266.727 230.505 267.728 230.015 268.569 229.309C284.65 215.721 312.6 194.886 342.766 185.174C342.899 185.128 343.011 185.036 343.082 184.914C343.119 184.85 343.143 184.778 343.152 184.704C343.161 184.63 343.155 184.555 343.135 184.483C343.115 184.411 343.08 184.344 343.033 184.286C342.987 184.228 342.929 184.18 342.863 184.144L339.113 182.223C295.601 197.27 259.647 229.819 259.647 229.819Z" fill="#191D4A"/>
<path opacity="0.8" d="M259.647 229.819L262.408 230.63C263.464 230.93 264.579 230.966 265.653 230.735C266.727 230.505 267.728 230.015 268.569 229.309C284.65 215.721 312.6 194.886 342.766 185.174C342.899 185.128 343.011 185.036 343.082 184.914C343.119 184.85 343.143 184.778 343.152 184.704C343.161 184.63 343.155 184.555 343.135 184.483C343.115 184.411 343.08 184.344 343.033 184.286C342.987 184.228 342.929 184.18 342.863 184.144L339.113 182.223C295.601 197.27 259.647 229.819 259.647 229.819Z" fill="white"/>
<path opacity="0.2" d="M424.512 248.158L278.31 258.616L281.062 276.622C281.907 282.133 283.955 287.392 287.061 292.025L299.279 310.266L424.065 293.411L483.057 248.158H424.512Z" fill="white"/>
<path d="M516.186 363.165C538.047 363.165 555.769 345.466 555.769 323.634C555.769 301.803 538.047 284.104 516.186 284.104C494.325 284.104 476.604 301.803 476.604 323.634C476.604 345.466 494.325 363.165 516.186 363.165Z" fill="#263238"/>
<path opacity="0.4" d="M516.186 347.867C529.587 347.867 540.45 337.018 540.45 323.635C540.45 310.252 529.587 299.402 516.186 299.402C502.786 299.402 491.922 310.252 491.922 323.635C491.922 337.018 502.786 347.867 516.186 347.867Z" fill="white"/>
<g opacity="0.3">
<path d="M516.194 301.843H516.186C515.115 301.843 514.246 302.71 514.246 303.78V316.2C514.246 317.27 515.115 318.138 516.186 318.138H516.194C517.266 318.138 518.135 317.27 518.135 316.2V303.78C518.135 302.71 517.266 301.843 516.194 301.843Z" fill="white"/>
</g>
<g opacity="0.3">
<path d="M516.194 329.147H516.186C515.115 329.147 514.246 330.015 514.246 331.085V343.505C514.246 344.575 515.115 345.443 516.186 345.443H516.194C517.266 345.443 518.135 344.575 518.135 343.505V331.085C518.135 330.015 517.266 329.147 516.194 329.147Z" fill="white"/>
</g>
<g opacity="0.3">
<path d="M523.598 321.608C523.376 321.733 523.132 321.814 522.879 321.846C522.626 321.877 522.369 321.858 522.123 321.791C521.877 321.723 521.647 321.607 521.446 321.451C521.245 321.294 521.077 321.1 520.951 320.878C520.696 320.433 520.627 319.905 520.761 319.409C520.895 318.914 521.22 318.491 521.666 318.235L532.43 311.993C532.652 311.865 532.896 311.782 533.15 311.748C533.404 311.715 533.662 311.732 533.909 311.798C534.157 311.865 534.388 311.979 534.591 312.135C534.794 312.29 534.965 312.485 535.092 312.706C535.346 313.152 535.413 313.679 535.279 314.174C535.146 314.669 534.822 315.091 534.378 315.349L523.598 321.591V321.608Z" fill="white"/>
</g>
<g opacity="0.3">
<path d="M499.926 335.203C499.48 335.459 498.951 335.527 498.455 335.393C497.959 335.259 497.536 334.935 497.28 334.49C497.153 334.27 497.072 334.027 497.039 333.776C497.007 333.525 497.024 333.269 497.09 333.025C497.157 332.78 497.271 332.551 497.426 332.35C497.581 332.149 497.774 331.981 497.994 331.855L508.758 325.613C509.204 325.356 509.734 325.286 510.231 325.419C510.729 325.551 511.153 325.874 511.413 326.318C511.67 326.765 511.74 327.295 511.608 327.793C511.476 328.291 511.152 328.716 510.707 328.977L499.934 335.219L499.926 335.203Z" fill="white"/>
</g>
<g opacity="0.3">
<path d="M532.438 335.252L521.674 329.009C521.452 328.882 521.258 328.712 521.102 328.509C520.946 328.306 520.831 328.075 520.765 327.828C520.698 327.581 520.681 327.323 520.715 327.07C520.748 326.816 520.831 326.572 520.96 326.35C521.22 325.906 521.647 325.583 522.146 325.452C522.646 325.321 523.176 325.394 523.622 325.653L534.386 331.896C534.83 332.153 535.154 332.576 535.288 333.07C535.421 333.565 535.354 334.093 535.101 334.539C534.973 334.76 534.803 334.954 534.6 335.11C534.397 335.266 534.165 335.38 533.917 335.446C533.67 335.513 533.412 335.53 533.158 335.496C532.905 335.463 532.66 335.38 532.438 335.252Z" fill="white"/>
</g>
<g opacity="0.3">
<path d="M511.421 320.886C511.163 321.33 510.74 321.653 510.244 321.785C509.748 321.917 509.219 321.848 508.775 321.592L497.994 315.365C497.55 315.108 497.227 314.685 497.094 314.19C496.962 313.694 497.032 313.167 497.288 312.722C497.546 312.279 497.969 311.956 498.465 311.824C498.961 311.692 499.49 311.761 499.934 312.017L510.707 318.26C511.151 318.517 511.474 318.94 511.607 319.435C511.739 319.931 511.669 320.458 511.413 320.902L511.421 320.886Z" fill="white"/>
</g>
<path d="M512.931 323.626C512.931 322.766 513.273 321.941 513.882 321.333C514.491 320.725 515.317 320.384 516.178 320.384C516.82 320.384 517.448 320.574 517.982 320.93C518.516 321.286 518.932 321.793 519.178 322.385C519.424 322.978 519.488 323.63 519.363 324.259C519.237 324.888 518.928 325.466 518.474 325.919C518.02 326.373 517.441 326.682 516.812 326.807C516.182 326.932 515.529 326.868 514.935 326.622C514.342 326.377 513.835 325.961 513.478 325.428C513.121 324.895 512.931 324.268 512.931 323.626Z" fill="#263238"/>
<path d="M232.063 363.173C253.924 363.173 271.646 345.474 271.646 323.643C271.646 301.811 253.924 284.113 232.063 284.113C210.203 284.113 192.481 301.811 192.481 323.643C192.481 345.474 210.203 363.173 232.063 363.173Z" fill="#263238"/>
<path opacity="0.4" d="M232.063 347.875C245.464 347.875 256.327 337.026 256.327 323.643C256.327 310.26 245.464 299.411 232.063 299.411C218.662 299.411 207.799 310.26 207.799 323.643C207.799 337.026 218.662 347.875 232.063 347.875Z" fill="white"/>
<g opacity="0.3">
<path d="M232.063 301.843H232.055C230.984 301.843 230.115 302.71 230.115 303.78V316.2C230.115 317.27 230.984 318.138 232.055 318.138H232.063C233.135 318.138 234.003 317.27 234.003 316.2V303.78C234.003 302.71 233.135 301.843 232.063 301.843Z" fill="white"/>
</g>
<g opacity="0.3">
<path d="M232.063 329.147H232.055C230.984 329.147 230.115 330.015 230.115 331.085V343.505C230.115 344.575 230.984 345.443 232.055 345.443H232.063C233.135 345.443 234.003 344.575 234.003 343.505V331.085C234.003 330.015 233.135 329.147 232.063 329.147Z" fill="white"/>
</g>
<g opacity="0.3">
<path d="M239.475 321.608C239.255 321.733 239.012 321.813 238.761 321.845C238.51 321.876 238.255 321.857 238.011 321.789C237.768 321.721 237.54 321.606 237.341 321.449C237.142 321.293 236.976 321.099 236.853 320.878C236.723 320.659 236.639 320.417 236.604 320.165C236.569 319.913 236.584 319.657 236.649 319.411C236.714 319.165 236.827 318.935 236.982 318.733C237.137 318.531 237.33 318.362 237.551 318.235L248.323 311.993C248.544 311.865 248.787 311.783 249.04 311.749C249.292 311.716 249.549 311.733 249.795 311.8C250.041 311.866 250.271 311.98 250.473 312.136C250.675 312.291 250.843 312.485 250.97 312.706C251.097 312.926 251.18 313.17 251.213 313.422C251.246 313.674 251.229 313.93 251.163 314.176C251.097 314.422 250.982 314.652 250.826 314.853C250.671 315.054 250.476 315.223 250.255 315.349L239.475 321.592V321.608Z" fill="white"/>
</g>
<g opacity="0.3">
<path d="M213.149 334.49C213.022 334.27 212.941 334.028 212.908 333.776C212.875 333.525 212.893 333.269 212.959 333.025C213.026 332.78 213.14 332.551 213.295 332.35C213.45 332.149 213.643 331.981 213.863 331.855L224.627 325.613C225.073 325.353 225.604 325.281 226.103 325.411C226.602 325.542 227.029 325.865 227.29 326.31C227.418 326.531 227.501 326.776 227.535 327.029C227.568 327.283 227.551 327.54 227.485 327.787C227.418 328.034 227.304 328.266 227.148 328.468C226.992 328.671 226.797 328.841 226.576 328.969L215.811 335.211C215.362 335.467 214.83 335.534 214.331 335.399C213.832 335.264 213.407 334.937 213.149 334.49Z" fill="white"/>
</g>
<g opacity="0.3">
<path d="M250.962 334.547C250.704 334.99 250.28 335.313 249.784 335.445C249.288 335.578 248.76 335.508 248.315 335.252L237.543 329.009C237.098 328.749 236.774 328.323 236.643 327.824C236.512 327.326 236.585 326.796 236.845 326.35C236.972 326.13 237.141 325.937 237.343 325.782C237.545 325.628 237.776 325.515 238.022 325.45C238.268 325.385 238.525 325.37 238.777 325.404C239.029 325.439 239.272 325.524 239.491 325.653L250.255 331.896C250.699 332.153 251.023 332.576 251.155 333.071C251.288 333.567 251.218 334.094 250.962 334.538V334.547Z" fill="white"/>
</g>
<g opacity="0.3">
<path d="M227.298 320.902C227.038 321.345 226.612 321.666 226.114 321.796C225.616 321.925 225.087 321.851 224.644 321.591L213.863 315.365C213.642 315.239 213.448 315.071 213.292 314.869C213.136 314.668 213.022 314.438 212.955 314.192C212.889 313.947 212.872 313.69 212.905 313.438C212.938 313.186 213.021 312.943 213.149 312.722C213.409 312.277 213.834 311.951 214.333 311.818C214.832 311.684 215.363 311.753 215.811 312.009L226.576 318.251C227.02 318.509 227.343 318.932 227.476 319.427C227.608 319.922 227.538 320.45 227.282 320.894L227.298 320.902Z" fill="white"/>
</g>
<path d="M232.063 320.384C232.706 320.384 233.333 320.574 233.867 320.93C234.401 321.286 234.817 321.793 235.063 322.385C235.309 322.978 235.373 323.63 235.248 324.259C235.123 324.888 234.813 325.466 234.359 325.919C233.905 326.373 233.327 326.682 232.697 326.807C232.067 326.932 231.414 326.868 230.821 326.622C230.227 326.377 229.72 325.961 229.363 325.428C229.007 324.895 228.816 324.268 228.816 323.626C228.816 322.766 229.158 321.941 229.767 321.333C230.376 320.725 231.202 320.384 232.063 320.384Z" fill="#263238"/>
<path opacity="0.3" d="M577.264 249.074C577.895 248.873 578.419 248.43 578.723 247.844C579.028 247.257 579.087 246.574 578.888 245.944C578.433 237.627 576.664 230.217 571.582 225.117C571.417 224.574 571.071 224.103 570.602 223.783C570.132 223.463 569.567 223.313 569.001 223.358L538.819 226.187C538.357 226.231 537.916 226.401 537.546 226.68C537.176 226.959 536.89 227.335 536.722 227.767C536.553 228.198 536.508 228.668 536.592 229.124C536.676 229.579 536.884 230.003 537.195 230.346L545.832 239.645C546.133 239.968 546.514 240.206 546.936 240.334L575.811 249.074C576.286 249.214 576.79 249.214 577.264 249.074Z" fill="black"/>
<path d="M276.175 233.727C275.964 234.55 276.069 235.422 276.468 236.172C276.868 236.922 277.533 237.496 278.335 237.781L298.175 243.334C299.964 243.88 301.817 244.196 303.687 244.274L309.929 243.861L304.036 212.081C290.438 220.999 289.505 221.412 277.288 231.798C276.713 232.3 276.322 232.979 276.175 233.727Z" fill="#263238"/>
<path d="M405.378 183.52L392.901 237.781L409.202 236.605L416.662 184.031C412.847 183.804 409.085 183.633 405.378 183.52Z" fill="#263238"/>
<path d="M457.097 226.463L479.989 197.902C480.664 197.121 481.078 196.149 481.174 195.121C481.426 192.567 479.818 190.257 477.578 189.989C472.886 189.349 467.893 188.741 462.901 188.141" fill="#263238"/>
<path d="M294.213 239.248C293.27 239.26 292.335 239.086 291.459 238.736C290.584 238.386 289.787 237.867 289.113 237.209C288.438 236.551 287.901 235.766 287.531 234.9C287.161 234.034 286.965 233.104 286.956 232.162C286.937 230.529 287.477 228.938 288.487 227.652C289.497 226.367 290.915 225.464 292.508 225.093L302.071 222.855L304.506 238.859L294.408 239.24L294.213 239.248Z" fill="#191D4A"/>
<path opacity="0.3" d="M301.698 238.964L304.498 238.859L302.071 222.855L299.335 223.504L301.698 238.964Z" fill="black"/>
<path opacity="0.6" d="M396.433 307.583H396.392C396.366 307.577 396.341 307.566 396.319 307.551C396.297 307.535 396.279 307.516 396.264 307.493C396.25 307.47 396.24 307.445 396.236 307.419C396.231 307.392 396.232 307.365 396.238 307.339C396.343 306.845 406.791 257.886 408.13 251.19C408.642 248.636 408.828 243.731 408.674 236.597C408.674 236.543 408.696 236.492 408.734 236.454C408.772 236.416 408.823 236.394 408.877 236.394C408.93 236.394 408.98 236.414 409.018 236.451C409.056 236.487 409.078 236.537 409.08 236.589C409.234 243.731 409.08 248.66 408.528 251.246C407.189 257.927 396.741 306.91 396.636 307.404C396.628 307.453 396.604 307.497 396.566 307.53C396.529 307.563 396.482 307.581 396.433 307.583Z" fill="black"/>
<path opacity="0.6" d="M302.274 314.927C302.241 314.927 302.208 314.919 302.178 314.903C302.149 314.888 302.123 314.866 302.104 314.838C301.974 314.636 288.49 294.708 283.855 286.374C279.09 277.797 276.013 236.686 275.883 234.935C275.881 234.883 275.899 234.831 275.934 234.792C275.969 234.753 276.018 234.728 276.07 234.724C276.097 234.721 276.124 234.723 276.15 234.731C276.176 234.739 276.2 234.752 276.221 234.769C276.241 234.787 276.258 234.808 276.27 234.833C276.282 234.857 276.288 234.884 276.289 234.911C276.289 235.332 279.488 277.675 284.212 286.18C288.831 294.498 302.307 314.417 302.445 314.611C302.473 314.657 302.483 314.712 302.473 314.764C302.462 314.817 302.432 314.864 302.388 314.895C302.354 314.918 302.315 314.929 302.274 314.927Z" fill="black"/>
<path opacity="0.6" d="M170.23 254.384C170.19 254.384 170.152 254.373 170.118 254.351C170.085 254.329 170.059 254.298 170.043 254.262C170.024 254.212 170.025 254.156 170.047 254.106C170.068 254.056 170.107 254.016 170.157 253.995C180.499 249.771 213.644 241.834 221.421 240.561C231.219 238.997 264.697 230.744 265.03 230.663C265.083 230.65 265.14 230.66 265.187 230.688C265.234 230.717 265.268 230.763 265.281 230.817C265.287 230.843 265.288 230.87 265.283 230.896C265.279 230.922 265.269 230.948 265.255 230.97C265.241 230.993 265.222 231.012 265.2 231.028C265.178 231.043 265.153 231.054 265.127 231.06C264.794 231.141 231.3 239.394 221.486 240.967C213.936 242.175 180.393 250.249 170.344 254.376L170.23 254.384Z" fill="black"/>
<path opacity="0.8" d="M504.18 195.754C503.811 196.08 503.511 196.476 503.296 196.918C503.081 197.361 502.955 197.841 502.927 198.332C502.898 198.824 502.967 199.315 503.129 199.78C503.291 200.244 503.543 200.672 503.871 201.039L508.02 205.547C508.497 206.053 509.103 206.42 509.773 206.609L560.615 220.691C561.5 220.926 562.411 221.048 563.326 221.056H573.425C572.903 220.7 572.361 220.375 571.801 220.083L522.786 194.294C522.492 194.149 522.229 193.948 522.013 193.701C521.798 193.455 521.632 193.168 521.528 192.858C521.423 192.548 521.38 192.22 521.403 191.893C521.425 191.566 521.512 191.247 521.658 190.954L505.739 194.935C505.162 195.082 504.628 195.362 504.18 195.754Z" fill="white"/>
<path d="M335.792 217.27C335.792 217.27 341.865 238.607 344.819 239.361C350.161 240.74 368.231 237.643 367.874 237.043L366.388 229.528C366.388 229.528 347.945 228.206 347.563 228.352L341.71 214.975L335.792 217.27Z" fill="#E1715B"/>
<path d="M341.759 218.729C341.759 218.729 343.602 217.018 343.651 214.935C343.699 212.851 344.292 211.214 344.227 209.665C344.162 208.117 342.863 209.762 342.352 210.776C341.84 211.789 341.248 212.932 340.541 212.397C339.835 211.862 336.807 205.101 335.752 204.525C334.697 203.95 334.851 205.182 334.851 205.182C334.851 205.182 334.039 203.561 333.341 203.69C333.154 203.69 332.765 204.112 333.008 204.906C333.552 206.698 334.883 210.403 334.883 210.403C334.81 210.192 332.838 205.733 332.448 205.109C331.953 204.298 331.295 204.152 330.824 204.46C330.167 204.89 332.448 210.492 332.342 210.8C332.342 210.8 331.157 207.557 330.143 207.371C329.128 207.184 329.769 209.317 330.678 211.06C331.49 212.681 332.74 216.013 333.747 217.545C334.989 219.442 336.255 220.439 338.358 220.115C339.593 219.955 340.765 219.477 341.759 218.729Z" fill="#E1715B"/>
<path opacity="0.3" d="M336.596 209.527C336.575 209.529 336.554 209.523 336.537 209.511C336.519 209.5 336.506 209.482 336.499 209.463C336.028 208.092 335.484 206.747 334.875 205.409C334.864 205.384 334.863 205.356 334.872 205.33C334.881 205.305 334.9 205.283 334.924 205.271C334.949 205.262 334.977 205.261 335.002 205.27C335.027 205.279 335.048 205.297 335.062 205.32C335.646 206.633 336.19 207.995 336.685 209.373C336.694 209.398 336.693 209.425 336.682 209.449C336.672 209.473 336.653 209.492 336.629 209.503L336.596 209.527Z" fill="black"/>
<path opacity="0.3" d="M332.765 212.211C332.749 212.21 332.734 212.206 332.72 212.199C332.706 212.192 332.693 212.182 332.683 212.17C332.674 212.161 332.667 212.151 332.662 212.139C332.657 212.127 332.655 212.114 332.655 212.101C332.655 212.089 332.657 212.076 332.662 212.064C332.667 212.052 332.674 212.042 332.683 212.033C334.154 210.826 335.946 210.077 337.838 209.876C337.865 209.874 337.892 209.882 337.913 209.898C337.934 209.915 337.948 209.939 337.952 209.965C337.954 209.979 337.954 209.992 337.95 210.006C337.947 210.019 337.941 210.031 337.932 210.042C337.924 210.052 337.913 210.061 337.901 210.068C337.889 210.074 337.876 210.078 337.863 210.079C336.01 210.275 334.255 211.008 332.813 212.187C332.8 212.2 332.783 212.208 332.765 212.211Z" fill="black"/>
<path opacity="0.3" d="M338.804 217.351C338.785 217.35 338.766 217.344 338.75 217.332C338.734 217.321 338.722 217.304 338.715 217.286C338.413 216.553 338.379 215.738 338.617 214.982C338.856 214.226 339.353 213.578 340.022 213.151C340.031 213.142 340.042 213.135 340.054 213.13C340.066 213.125 340.078 213.123 340.091 213.123C340.104 213.123 340.117 213.125 340.128 213.13C340.14 213.135 340.151 213.142 340.16 213.151C340.177 213.172 340.187 213.198 340.187 213.224C340.187 213.251 340.177 213.277 340.16 213.297C339.535 213.702 339.067 214.308 338.837 215.016C338.615 215.729 338.647 216.496 338.926 217.189C338.933 217.213 338.931 217.24 338.92 217.263C338.91 217.287 338.892 217.306 338.869 217.318L338.804 217.351Z" fill="black"/>
<path d="M383.412 210.16C383.412 210.16 390.174 204.485 389.906 202.555C389.638 200.626 388.526 201.234 388.526 201.234C388.526 201.234 390.872 196.637 388.566 195.843C386.261 195.048 386.131 195.843 386.131 195.843C386.131 195.843 387.048 192.089 385.214 190.978C383.826 190.111 383.233 191.838 383.233 191.838C383.233 191.838 380.579 187.719 377.404 187.784C375.838 187.906 375.058 188.911 375.286 190.119C375.282 190.173 375.282 190.227 375.286 190.281C375.286 190.281 368.873 187.484 365.893 189.243C362.914 191.003 366.803 192.908 366.803 192.908C366.803 192.908 360.552 192.259 359.334 194.772C358.36 196.767 361.136 198.105 361.136 198.105C360.468 198.359 359.849 198.729 359.31 199.199C358.935 199.519 358.666 199.946 358.539 200.423C358.412 200.899 358.433 201.403 358.599 201.868C358.766 202.332 359.069 202.735 359.47 203.023C359.871 203.31 360.35 203.47 360.844 203.48H360.901C361.234 203.48 361.826 203.561 362.07 203.334C362.07 203.334 360.99 205.587 363.304 206.317C365.617 207.047 366.721 204.363 366.721 204.363L383.412 210.16Z" fill="#263238"/>
<path d="M381.285 224.842C381.285 224.842 380.911 221.599 383.225 213.678L382.811 213.476C383.128 212.373 383.468 211.351 383.793 210.468C383.795 210.454 383.795 210.441 383.793 210.427L372.932 217.091C373.183 219.629 372.258 224.517 371.714 226.577L374.523 231.335L381.285 224.842Z" fill="#E1715B"/>
<path opacity="0.2" d="M372.745 220.65L378.987 219.264C378.419 221.202 376.69 223.488 372.355 223.666C372.566 222.673 372.697 221.664 372.745 220.65Z" fill="black"/>
<path d="M365.496 198.372C364.213 200.869 363.75 206.382 367.744 205.239C371.738 204.096 367.736 194.067 365.496 198.372Z" fill="#263238"/>
<path d="M383.89 205.174C383.144 212.033 382.859 215.916 379.206 219.256C373.719 224.274 365.544 220.804 364.221 213.84C363.028 207.566 364.448 197.399 371.34 195.048C372.865 194.525 374.498 194.396 376.086 194.676C377.675 194.955 379.166 195.632 380.42 196.644C381.674 197.656 382.651 198.97 383.258 200.462C383.865 201.954 384.083 203.575 383.89 205.174Z" fill="#E1715B"/>
<path d="M373.938 206.73C373.938 207.428 373.508 207.979 373.045 207.955C372.582 207.93 372.233 207.339 372.233 206.633C372.233 205.928 372.672 205.377 373.126 205.401C373.581 205.425 373.971 205.993 373.938 206.73Z" fill="#263238"/>
<path d="M367.014 206.503C367.014 207.209 366.583 207.76 366.121 207.736C365.658 207.711 365.309 207.112 365.349 206.414C365.39 205.717 365.78 205.158 366.242 205.182C366.705 205.206 367.046 205.798 367.014 206.503Z" fill="#263238"/>
<path d="M369.287 206.22C369.287 206.22 366.851 209.617 366.104 211.003C367.046 211.935 368.751 211.611 368.751 211.611L369.287 206.22Z" fill="#FD504E"/>
<path d="M375.643 202.912C375.587 202.927 375.528 202.927 375.472 202.912C375.416 202.896 375.366 202.865 375.326 202.823C375.04 202.523 374.688 202.294 374.297 202.153C373.907 202.012 373.49 201.964 373.078 202.012C372.995 202.02 372.913 201.997 372.847 201.948C372.781 201.899 372.735 201.827 372.719 201.746C372.703 201.666 372.717 201.582 372.76 201.511C372.802 201.44 372.869 201.388 372.948 201.364C373.47 201.298 374.001 201.357 374.497 201.536C374.992 201.715 375.438 202.009 375.797 202.393C375.857 202.455 375.891 202.538 375.891 202.624C375.891 202.71 375.857 202.793 375.797 202.855C375.753 202.89 375.699 202.91 375.643 202.912Z" fill="#263238"/>
<path d="M364.075 203.326C364.019 203.306 363.969 203.272 363.93 203.227C363.892 203.182 363.865 203.128 363.854 203.07C363.842 203.012 363.846 202.952 363.865 202.896C363.884 202.84 363.917 202.789 363.961 202.75C364.36 202.412 364.835 202.174 365.345 202.059C365.855 201.943 366.386 201.952 366.892 202.085C366.974 202.113 367.042 202.172 367.082 202.249C367.121 202.326 367.129 202.416 367.103 202.499C367.09 202.54 367.069 202.578 367.041 202.611C367.013 202.644 366.979 202.671 366.94 202.691C366.902 202.711 366.86 202.722 366.817 202.726C366.773 202.729 366.73 202.723 366.689 202.709C366.288 202.609 365.869 202.607 365.467 202.705C365.066 202.802 364.694 202.996 364.384 203.269C364.341 203.303 364.29 203.326 364.236 203.336C364.183 203.346 364.127 203.342 364.075 203.326Z" fill="#263238"/>
<path d="M369.684 213.549C370.796 213.2 372.834 212.454 373.824 211.416C373.953 211.657 374.048 211.913 374.109 212.178C374.223 212.644 374.223 213.131 374.109 213.597C373.865 214.546 373.029 215.575 370.796 216.191H370.748C370.748 216.191 369.538 216.5 368.929 213.759C368.921 213.767 369.222 213.694 369.684 213.549Z" fill="#263238"/>
<path d="M369.684 213.549L370.115 214.286C372.217 213.703 373.621 213.005 374.109 212.178C374.048 211.913 373.953 211.657 373.824 211.416C372.834 212.454 370.796 213.216 369.684 213.549Z" fill="white"/>
<path d="M370.805 216.191C373.037 215.575 373.873 214.57 374.117 213.597C373.271 213.849 372.476 214.25 371.771 214.781C371.31 215.14 370.973 215.633 370.805 216.191Z" fill="#FB504E"/>
<path d="M381.829 210.484C381.203 210.216 380.668 209.774 380.286 209.211C380.033 208.633 379.954 207.993 380.059 207.371C380.114 206.718 380.206 206.068 380.335 205.425C379.726 205.733 378.979 205.247 378.646 204.615C378.225 203.674 378.087 202.632 378.249 201.615C377.859 201.705 377.452 201.691 377.07 201.573C376.687 201.454 376.343 201.237 376.073 200.942C375.819 200.632 375.681 200.244 375.681 199.844C375.681 199.443 375.819 199.055 376.073 198.745C373.528 199.084 370.942 198.925 368.459 198.275C368.629 198.591 368.459 198.972 368.207 199.256C367.308 200.416 366.014 201.207 364.57 201.477C364.359 201.518 364.099 201.526 363.978 201.347C363.929 201.244 363.912 201.128 363.929 201.015C364 200.318 364.208 199.643 364.541 199.026C364.874 198.41 365.325 197.865 365.869 197.424C366.959 196.549 368.192 195.868 369.514 195.413C371.666 194.537 373.937 193.991 376.252 193.792C378.577 193.6 380.913 194.005 383.038 194.967C383.505 195.164 383.924 195.46 384.264 195.835C384.552 196.225 384.759 196.669 384.873 197.14C385.725 199.945 386.05 202.883 385.831 205.806" fill="#263238"/>
<path d="M386.342 211.035C386.041 211.837 385.585 212.572 384.998 213.197C384.411 213.821 383.707 214.324 382.925 214.675C380.822 215.6 379.426 213.792 379.726 211.635C379.994 209.689 381.407 206.868 383.655 206.86C385.904 206.852 387.073 209.041 386.342 211.035Z" fill="#E1715B"/>
<path opacity="0.2" d="M381.618 211.173C381.591 211.169 381.565 211.16 381.542 211.146C381.519 211.132 381.499 211.113 381.483 211.092C381.467 211.07 381.455 211.045 381.449 211.018C381.443 210.992 381.442 210.965 381.447 210.938C381.55 210.314 381.813 209.728 382.21 209.236C382.54 208.794 383.014 208.482 383.55 208.352C383.834 208.292 384.129 208.317 384.399 208.423C384.669 208.53 384.902 208.714 385.068 208.952C385.093 208.999 385.101 209.054 385.089 209.106C385.077 209.158 385.046 209.204 385.003 209.236C384.955 209.263 384.899 209.27 384.846 209.256C384.793 209.243 384.747 209.209 384.719 209.163C384.597 208.996 384.429 208.868 384.236 208.794C384.043 208.721 383.833 208.705 383.631 208.749C383.189 208.861 382.799 209.121 382.527 209.487C382.176 209.927 381.944 210.448 381.853 211.003C381.849 211.03 381.84 211.055 381.826 211.079C381.812 211.102 381.793 211.122 381.771 211.138C381.749 211.154 381.724 211.165 381.698 211.171C381.672 211.177 381.644 211.178 381.618 211.173Z" fill="black"/>
<path d="M371.203 236.037C371.203 236.037 351.014 241.931 343.683 242.191C336.353 242.45 320.142 239.029 320.142 239.029L321.059 231.587L344.877 232.803L370.772 224.169L371.203 236.037Z" fill="#E1715B"/>
<path d="M363.986 240.586L367.955 224.201L378.038 222.442C378.484 222.377 386.667 221.704 389.126 230.679L389.67 237.805L363.986 240.586Z" fill="#263238"/>
<path d="M373.483 238.948C372.923 238.948 357.248 241.81 357.248 241.81L354.001 229.049C358.565 227.168 363.232 225.544 367.98 224.185C375.448 222.166 382.446 221.542 384.053 224.996C387.081 231.627 373.483 238.948 373.483 238.948Z" fill="#263238"/>
<path opacity="0.3" d="M340.947 232.722L344.868 232.924L355.056 229.438C355.056 229.438 357.167 228.53 356.631 228.717C356.095 228.903 351.874 228.457 351.59 228.506C351.306 228.555 340.947 232.722 340.947 232.722Z" fill="black"/>
<path d="M313.225 228.206C312.762 228.482 307.364 234.051 307.364 234.051L308.419 240.958L315.206 233.962L313.225 228.206Z" fill="#263238"/>
<path d="M321.351 242.612C320.775 242.894 320.11 242.937 319.502 242.732C318.894 242.527 318.392 242.091 318.104 241.518L307.356 219.702C307.074 219.126 307.031 218.463 307.236 217.855C307.441 217.248 307.878 216.746 308.452 216.459C309.028 216.177 309.693 216.134 310.301 216.339C310.909 216.544 311.411 216.981 311.699 217.553L322.471 239.345C322.614 239.633 322.698 239.946 322.719 240.266C322.74 240.587 322.697 240.908 322.593 241.212C322.488 241.516 322.325 241.796 322.112 242.036C321.899 242.276 321.64 242.472 321.351 242.612Z" fill="#263238"/>
<path d="M329.103 232.187L320.239 230.995L317.682 227.898C317.682 227.898 313.176 227.493 312.21 228.295C311.244 229.098 310.27 231.652 310.27 231.652C310.27 231.652 309.093 233.751 311.082 234.846C311.082 234.846 309.807 236.71 312.08 238.024C312.08 238.024 310.408 238.972 312.803 239.953C313.724 240.32 314.709 240.499 315.7 240.479C316.692 240.46 317.669 240.242 318.575 239.84C319.902 239.516 321.273 239.415 322.634 239.54L330.695 240.959L329.103 232.187Z" fill="#E1715B"/>
<path d="M104.271 150.125C99.7177 150.125 95.2669 151.496 91.4812 154.064C87.6954 156.633 84.7448 160.284 83.0024 164.555C81.26 168.826 80.8041 173.526 81.6923 178.06C82.5806 182.595 84.7731 186.76 87.9927 190.029C91.2122 193.298 95.3141 195.524 99.7797 196.426C104.245 197.328 108.874 196.865 113.081 195.096C117.287 193.326 120.882 190.33 123.412 186.486C125.942 182.642 127.292 178.123 127.292 173.5C127.285 167.303 124.858 161.361 120.542 156.979C116.226 152.596 110.374 150.132 104.271 150.125ZM86.9233 182.49H95.959L99.722 192.735C96.9887 192.062 94.4304 190.799 92.2216 189.031C90.0129 187.263 88.2057 185.032 86.9233 182.49ZM104.271 179.793C103.57 179.793 102.886 179.582 102.303 179.187C101.721 178.792 101.267 178.23 100.999 177.573C100.731 176.916 100.661 176.193 100.797 175.496C100.934 174.798 101.271 174.157 101.767 173.654C102.262 173.151 102.893 172.809 103.58 172.67C104.267 172.531 104.979 172.603 105.626 172.875C106.273 173.147 106.826 173.608 107.216 174.199C107.605 174.791 107.813 175.486 107.813 176.197C107.813 177.151 107.439 178.066 106.775 178.74C106.111 179.414 105.21 179.793 104.271 179.793ZM108.8 192.737L112.583 182.49H121.618C120.334 185.035 118.524 187.267 116.312 189.036C114.099 190.804 111.537 192.067 108.8 192.737ZM104.271 166.308C97.1361 166.316 90.235 168.891 84.7917 173.574V173.5C84.7917 168.254 86.8439 163.223 90.497 159.514C94.15 155.805 99.1046 153.721 104.271 153.721C109.437 153.721 114.392 155.805 118.045 159.514C121.698 163.223 123.75 168.254 123.75 173.5V173.574C118.307 168.891 111.406 166.316 104.271 166.308Z" fill="#191D4A"/>
<path d="M68.778 218.252C67.28 218.252 65.922 217.93 64.704 217.286C63.5 216.628 62.548 215.725 61.848 214.577C61.162 213.415 60.819 212.106 60.819 210.65C60.819 209.194 61.162 207.892 61.848 206.744C62.548 205.582 63.5 204.679 64.704 204.035C65.922 203.377 67.287 203.048 68.799 203.048C70.073 203.048 71.221 203.272 72.243 203.72C73.279 204.168 74.147 204.812 74.847 205.652L72.663 207.668C71.669 206.52 70.437 205.946 68.967 205.946C68.057 205.946 67.245 206.149 66.531 206.555C65.817 206.947 65.257 207.5 64.851 208.214C64.459 208.928 64.263 209.74 64.263 210.65C64.263 211.56 64.459 212.372 64.851 213.086C65.257 213.8 65.817 214.36 66.531 214.766C67.245 215.158 68.057 215.354 68.967 215.354C70.437 215.354 71.669 214.773 72.663 213.611L74.847 215.627C74.147 216.481 73.279 217.132 72.243 217.58C71.207 218.028 70.052 218.252 68.778 218.252ZM87.9897 206.702V218H84.8607V216.698C84.0487 217.678 82.8727 218.168 81.3327 218.168C80.2687 218.168 79.3027 217.93 78.4347 217.454C77.5807 216.978 76.9087 216.299 76.4187 215.417C75.9287 214.535 75.6837 213.513 75.6837 212.351C75.6837 211.189 75.9287 210.167 76.4187 209.285C76.9087 208.403 77.5807 207.724 78.4347 207.248C79.3027 206.772 80.2687 206.534 81.3327 206.534C82.7747 206.534 83.9017 206.989 84.7137 207.899V206.702H87.9897ZM81.8997 215.48C82.7257 215.48 83.4117 215.2 83.9577 214.64C84.5037 214.066 84.7767 213.303 84.7767 212.351C84.7767 211.399 84.5037 210.643 83.9577 210.083C83.4117 209.509 82.7257 209.222 81.8997 209.222C81.0597 209.222 80.3667 209.509 79.8207 210.083C79.2747 210.643 79.0017 211.399 79.0017 212.351C79.0017 213.303 79.2747 214.066 79.8207 214.64C80.3667 215.2 81.0597 215.48 81.8997 215.48ZM97.7007 206.534C98.7507 206.534 99.7027 206.779 100.557 207.269C101.425 207.745 102.104 208.424 102.594 209.306C103.084 210.174 103.329 211.189 103.329 212.351C103.329 213.513 103.084 214.535 102.594 215.417C102.104 216.285 101.425 216.964 100.557 217.454C99.7027 217.93 98.7507 218.168 97.7007 218.168C96.2587 218.168 95.1247 217.713 94.2987 216.803V222.074H91.0227V206.702H94.1517V208.004C94.9637 207.024 96.1467 206.534 97.7007 206.534ZM97.1337 215.48C97.9737 215.48 98.6597 215.2 99.1917 214.64C99.7377 214.066 100.011 213.303 100.011 212.351C100.011 211.399 99.7377 210.643 99.1917 210.083C98.6597 209.509 97.9737 209.222 97.1337 209.222C96.2937 209.222 95.6007 209.509 95.0547 210.083C94.5227 210.643 94.2567 211.399 94.2567 212.351C94.2567 213.303 94.5227 214.066 95.0547 214.64C95.6007 215.2 96.2937 215.48 97.1337 215.48ZM112.326 217.454C112.004 217.692 111.605 217.874 111.129 218C110.667 218.112 110.184 218.168 109.68 218.168C108.322 218.168 107.279 217.825 106.551 217.139C105.823 216.453 105.459 215.445 105.459 214.115V204.203H108.735V206.954H111.528V209.474H108.735V214.073C108.735 214.549 108.854 214.92 109.092 215.186C109.33 215.438 109.673 215.564 110.121 215.564C110.625 215.564 111.073 215.424 111.465 215.144L112.326 217.454ZM125.293 206.702V218H122.164V216.698C121.352 217.678 120.176 218.168 118.636 218.168C117.572 218.168 116.606 217.93 115.738 217.454C114.884 216.978 114.212 216.299 113.722 215.417C113.232 214.535 112.987 213.513 112.987 212.351C112.987 211.189 113.232 210.167 113.722 209.285C114.212 208.403 114.884 207.724 115.738 207.248C116.606 206.772 117.572 206.534 118.636 206.534C120.078 206.534 121.205 206.989 122.017 207.899V206.702H125.293ZM119.203 215.48C120.029 215.48 120.715 215.2 121.261 214.64C121.807 214.066 122.08 213.303 122.08 212.351C122.08 211.399 121.807 210.643 121.261 210.083C120.715 209.509 120.029 209.222 119.203 209.222C118.363 209.222 117.67 209.509 117.124 210.083C116.578 210.643 116.305 211.399 116.305 212.351C116.305 213.303 116.578 214.066 117.124 214.64C117.67 215.2 118.363 215.48 119.203 215.48ZM128.326 206.702H131.602V218H128.326V206.702ZM129.964 205.127C129.362 205.127 128.872 204.952 128.494 204.602C128.116 204.252 127.927 203.818 127.927 203.3C127.927 202.782 128.116 202.348 128.494 201.998C128.872 201.648 129.362 201.473 129.964 201.473C130.566 201.473 131.056 201.641 131.434 201.977C131.812 202.313 132.001 202.733 132.001 203.237C132.001 203.783 131.812 204.238 131.434 204.602C131.056 204.952 130.566 205.127 129.964 205.127ZM141.51 206.534C142.91 206.534 144.037 206.954 144.891 207.794C145.759 208.634 146.193 209.88 146.193 211.532V218H142.917V212.036C142.917 211.14 142.721 210.475 142.329 210.041C141.937 209.593 141.37 209.369 140.628 209.369C139.802 209.369 139.144 209.628 138.654 210.146C138.164 210.65 137.919 211.406 137.919 212.414V218H134.643V206.702H137.772V208.025C138.206 207.549 138.745 207.185 139.389 206.933C140.033 206.667 140.74 206.534 141.51 206.534Z" fill="#191D4A"/>
<path d="M70 113C71.0946 97.3529 83.8649 94 97 94" stroke="white" stroke-width="2"/>
<path d="M138 116C136.905 97.8824 124.135 94 111 94" stroke="white" stroke-width="2"/>
</svg>
